<?xml version="1.0" encoding="UTF-8" standalone="no"?>
<!-- Created with Inkscape (http://www.inkscape.org/) -->

<svg
   width="259.67459mm"
   height="546.09174mm"
   viewBox="0 0 259.67459 546.09174"
   version="1.1"
   id="svg1"
   xml:space="preserve"
   xmlns="http://www.w3.org/2000/svg"
   xmlns:svg="http://www.w3.org/2000/svg"><defs
     id="defs1" /><g
     id="layer1"
     transform="translate(884.05352,-268.99081)"><path
       id="path46"
       style="display:inline;fill:#b3b3b3;fill-opacity:1;stroke-width:0.264583"
       d="m -777.99851,330.94931 1.11621,20.46697 -37.58426,11.16366 -12.27988,3.34915 -10.41951,15.25695 -4.46588,32.74735 -3.72122,16.00109 -0.74414,27.90941 -14.51281,35.72392 -6.32623,47.63171 -13.39608,14.14074 -3.72122,18.6061 2.23242,1.86035 8.93124,-9.67486 3.34915,22.69939 8.18658,10.79159 15.62902,-0.74414 9.30331,-15.25695 -8.18658,-11.53573 1.11621,-22.32784 -3.34915,-3.72122 1.11621,-6.69829 11.90831,-20.46646 8.55866,-28.65354 0.74414,-11.16366 14.14074,-30.51442 7.81451,26.04854 1.86086,49.12052 -19.72282,54.70208 -5.2095,30.88649 -0.37207,36.46806 -5.95416,36.46806 2.97708,91.17066 -23.07198,30.14183 4.83795,7.81451 36.09598,3.72122 4.09329,-7.81451 -2.97707,-16.74575 4.09329,-2.60449 v -11.90832 l -1.86036,-13.39608 21.21111,-75.54113 0.74414,-29.02613 31.25856,-87.821 -0.016,-4.72322 h 0.70848 l -0.016,4.72322 31.25856,87.821 0.74414,29.02613 21.21111,75.54113 -1.86087,13.39608 v 11.90832 l 4.09381,2.60449 -2.97708,16.74575 4.09329,7.81451 36.09599,-3.72122 4.83743,-7.81451 -23.07146,-30.14183 2.97708,-91.17066 -5.95416,-36.46806 -0.37207,-36.46806 -5.21002,-30.88649 -19.72231,-54.70208 1.86035,-49.12052 7.81503,-26.04854 14.14074,30.51442 0.74414,11.16366 8.55865,28.65354 11.90832,20.46646 1.11621,6.69829 -3.34915,3.72122 1.11621,22.32784 -8.18658,11.53573 9.30331,15.25695 15.62902,0.74414 8.18658,-10.79159 3.34915,-22.69939 8.93124,9.67486 2.23242,-1.86035 -3.72122,-18.6061 -13.3966,-14.14074 -6.32571,-47.63171 -14.51281,-35.72392 -0.74466,-27.90941 -3.72122,-16.00109 -4.46536,-32.74735 -10.41952,-15.25695 -12.27987,-3.34915 -37.58479,-11.16366 1.11673,-20.46697 -22.26014,21.52995 v -6.45852 c 0,-2.57696 -2.07444,-4.65191 -4.65139,-4.65191 -2.57696,0 -4.6514,2.07495 -4.6514,4.65191 v 0.40566 z" /><path
       id="path48"
       style="fill:#cccccc;fill-opacity:1;stroke-width:0.264583"
       d="m -752.57443,268.99082 -5.1e-4,0.0811 8.6496,0.66301 12.94339,6.6983 5.2586,10.41952 -0.17829,14.10249 1.83297,0.61082 4.46897,1.74873 -0.97151,11.65924 -5.63532,11.07632 h -1.82366 l -1.73788,6.57376 -11.32592,17.11782 -11.88455,3.64474 -5.1e-4,0.0765 -0.12454,-0.0382 -0.12454,0.0382 -5.2e-4,-0.0765 -11.88455,-3.64474 -11.3254,-17.11782 -1.51981,-5.74797 0.009,0.14625 h -2.91507 l -5.63532,-11.07633 -0.97151,-11.65975 4.46949,-1.74873 2.70526,-0.90176 -0.18707,-14.78307 5.2586,-10.41952 12.94339,-6.6983 8.64961,-0.66301 -5.2e-4,-0.0811 0.52917,0.0403 z" /><path
       style="fill:#666666;fill-opacity:1;stroke-width:0.264583"
       d="m -800.33672,362.23686 37.12522,9.4972 7.77039,56.1195 -22.4478,6.0436 -28.49145,-15.5407 -6.04364,-35.3985 z"
       id="path7" /><path
       style="fill:#666666;fill-opacity:1;stroke-width:0.264583"
       d="m -810.69724,358.78336 41.44211,6.0436 -6.90702,-33.6717 -3.4535,18.1309 z"
       id="path9" /><path
       style="fill:#666666;fill-opacity:1;stroke-width:0.264583"
       d="m -802.97085,362.75896 -19.66066,1.6384 -13.65324,13.6532 -6.55357,38.5022 26.21423,-20.4799 2.45758,-18.0223 z"
       id="path10" /><path
       style="fill:#666666;fill-opacity:1;stroke-width:0.264583"
       d="m -816.62409,398.25736 -26.21423,18.8415 -0.8192,43.1442 6.82662,11.1957 20.75294,-25.395 6.55357,-21.2991 z"
       id="path11" /><path
       style="fill:#666666;fill-opacity:1;stroke-width:0.264583"
       d="m -866.00836,536.99996 30.12356,-47.7569 0.24492,-12.7351 -9.30648,-17.1435 -15.18422,32.8175 z"
       id="path12" /><path
       style="fill:#666666;fill-opacity:1;stroke-width:0.264583"
       d="m -828.04776,481.65096 -24.24581,36.2463 -11.51062,23.7559 10.531,0.4899 5.38795,3.6736 0.73472,-6.6125 16.65369,-32.0828 z"
       id="path13" /><path
       style="fill:#666666;fill-opacity:1;stroke-width:0.264583"
       d="m -805.76122,419.68956 12.00044,11.0208 -8.08194,33.5522 -6.85739,-17.8782 z"
       id="path14" /><path
       style="display:inline;fill:#666666;fill-opacity:1;stroke-width:0.264583"
       d="m -776.12749,451.52746 -0.2449,-7.8371 12.49026,-8.3268 h 7.10229 l 0.24493,17.1435 z"
       id="path15" /><path
       style="display:inline;fill:#666666;fill-opacity:1;stroke-width:0.264583"
       d="m -775.88257,455.44596 18.61294,0.2449 0.24489,16.8986 -18.85783,-0.7347 z"
       id="path16" /><path
       style="display:inline;fill:#666666;fill-opacity:1;stroke-width:0.264583"
       d="m -775.88257,475.77326 18.61294,0.2449 0.24489,16.8986 -18.85783,-0.7347 z"
       id="path17" /><path
       style="display:inline;fill:#666666;fill-opacity:1;stroke-width:0.264583"
       d="m -775.63767,495.61066 h 17.63331 v 46.5324 l -12.00044,-8.5718 -6.36759,-19.8374 z"
       id="path18" /><path
       style="display:inline;fill:#666666;fill-opacity:1;stroke-width:0.264583"
       d="m -792.29134,431.44506 9.30646,3.9185 2.69398,9.0616 -2.93888,46.2874 2.69398,23.756 -1.71436,2.2041 -5.38795,-0.2449 -10.04118,-6.3676 -3.42871,-45.7976 z"
       id="path19" /><path
       style="fill:#666666;fill-opacity:1;stroke-width:0.264583"
       d="m -771.47424,552.42916 14.93933,9.5513 -0.48983,12.4903 -14.69442,43.8383 z"
       id="path20" /><path
       style="fill:#666666;fill-opacity:1;stroke-width:0.264583"
       d="m -790.3321,521.81576 6.85742,5.6328 6.12267,21.0621 4.65323,38.9402 -1.22455,26.9397 -7.59211,31.1032 3.9185,-28.4092 -2.20413,-57.0633 z"
       id="path21" /><path
       style="fill:#666666;fill-opacity:1;stroke-width:0.264583"
       d="m -813.59826,559.04166 9.79628,-1.7144 10.531,-14.9393 2.20416,-16.1639 7.83704,31.8379 1.95926,70.7781 -7.59214,16.1639 h -7.83701 l -7.83703,-10.0412 -7.34719,3.9185 -5.63288,-0.2449 -7.10231,-27.6745 z"
       id="path22" /><path
       style="fill:#666666;fill-opacity:1;stroke-width:0.264583"
       d="m -787.63811,652.10626 -10.531,8.8167 -8.57176,49.2263 6.1227,12.7351 12.49024,-34.7767 z"
       id="path23" /><path
       style="fill:#666666;fill-opacity:1;stroke-width:0.264583"
       d="m -809.92465,713.33306 9.55138,10.7759 -8.32684,38.6953 z"
       id="path24" /><path
       style="fill:#666666;fill-opacity:1;stroke-width:0.264583"
       d="m -823.14964,646.96326 4.89815,35.0217 -9.06155,77.1457 -3.42871,-77.3906 z"
       id="path25" /><path
       style="fill:#666666;fill-opacity:1;stroke-width:0.264583"
       d="m -708.39954,362.23686 -37.12522,9.4972 -7.77039,56.1195 22.4478,6.0436 28.49145,-15.5407 6.04364,-35.3985 z"
       id="path26" /><path
       style="fill:#666666;fill-opacity:1;stroke-width:0.264583"
       d="m -698.03902,358.78336 -41.44211,6.0436 6.90702,-33.6717 3.4535,18.1309 z"
       id="path27" /><path
       style="fill:#666666;fill-opacity:1;stroke-width:0.264583"
       d="m -705.76541,362.75896 19.66066,1.6384 13.65324,13.6532 6.55357,38.5022 -26.21423,-20.4799 -2.45758,-18.0223 z"
       id="path28" /><path
       style="fill:#666666;fill-opacity:1;stroke-width:0.264583"
       d="m -692.11217,398.25736 26.21423,18.8415 0.8192,43.1442 -6.82662,11.1957 -20.75294,-25.395 -6.55357,-21.2991 z"
       id="path29" /><path
       style="display:inline;fill:#666666;fill-opacity:1;stroke-width:0.264583"
       d="m -642.7279,536.99996 -30.12356,-47.7569 -0.24492,-12.7351 9.30648,-17.1435 15.18422,32.8175 z"
       id="path30" /><path
       style="display:inline;fill:#666666;fill-opacity:1;stroke-width:0.264583"
       d="m -680.6885,481.65096 24.24581,36.2463 11.51062,23.7559 -10.531,0.4899 -5.38795,3.6736 -0.73472,-6.6125 -16.65369,-32.0828 z"
       id="path31" /><path
       style="fill:#666666;fill-opacity:1;stroke-width:0.264583"
       d="m -702.97504,419.68956 -12.00044,11.0208 8.08194,33.5522 6.85739,-17.8782 z"
       id="path32" /><path
       style="display:inline;fill:#666666;fill-opacity:1;stroke-width:0.264583"
       d="m -732.60877,451.52746 0.2449,-7.8371 -12.49026,-8.3268 h -7.10229 l -0.24493,17.1435 z"
       id="path33" /><path
       style="display:inline;fill:#666666;fill-opacity:1;stroke-width:0.264583"
       d="m -732.85369,455.44596 -18.61294,0.2449 -0.24489,16.8986 18.85783,-0.7347 z"
       id="path34" /><path
       style="display:inline;fill:#666666;fill-opacity:1;stroke-width:0.264583"
       d="m -732.85369,475.77326 -18.61294,0.2449 -0.24489,16.8986 18.85783,-0.7347 z"
       id="path35" /><path
       style="display:inline;fill:#666666;fill-opacity:1;stroke-width:0.264583"
       d="m -733.09859,495.61066 h -17.63331 v 46.5324 l 12.00044,-8.5718 6.36759,-19.8374 z"
       id="path36" /><path
       style="display:inline;fill:#666666;fill-opacity:1;stroke-width:0.264583"
       d="m -716.44492,431.44506 -9.30646,3.9185 -2.69398,9.0616 2.93888,46.2874 -2.69398,23.756 1.71436,2.2041 5.38795,-0.2449 10.04118,-6.3676 3.42871,-45.7976 z"
       id="path37" /><path
       style="fill:#666666;fill-opacity:1;stroke-width:0.264583"
       d="m -737.26202,552.42916 -14.93933,9.5513 0.48983,12.4903 14.69442,43.8383 z"
       id="path38" /><path
       style="fill:#666666;fill-opacity:1;stroke-width:0.264583"
       d="m -718.40416,521.81576 -6.85742,5.6328 -6.12267,21.0621 -4.65323,38.9402 1.22455,26.9397 7.59211,31.1032 -3.9185,-28.4092 2.20413,-57.0633 z"
       id="path39" /><path
       style="fill:#666666;fill-opacity:1;stroke-width:0.264583"
       d="m -695.138,559.04166 -9.79628,-1.7144 -10.531,-14.9393 -2.20416,-16.1639 -7.83704,31.8379 -1.95926,70.7781 7.59214,16.1639 h 7.83701 l 7.83703,-10.0412 7.34719,3.9185 5.63288,-0.2449 7.10231,-27.6745 z"
       id="path40" /><path
       style="fill:#666666;fill-opacity:1;stroke-width:0.264583"
       d="m -721.09815,652.10626 10.531,8.8167 8.57176,49.2263 -6.1227,12.7351 -12.49024,-34.7767 z"
       id="path41" /><path
       style="fill:#666666;fill-opacity:1;stroke-width:0.264583"
       d="m -698.81161,713.33306 -9.55138,10.7759 8.32684,38.6953 z"
       id="path42" /><path
       style="fill:#666666;fill-opacity:1;stroke-width:0.264583"
       d="m -685.58662,646.96326 -4.89815,35.0217 9.06155,77.1457 3.42871,-77.3906 z"
       id="path43" /></g></svg>
