<?xml version="1.0" encoding="UTF-8" standalone="no"?>
<!-- Created with Inkscape (http://www.inkscape.org/) -->

<svg
   width="259.67514mm"
   height="546.09222mm"
   viewBox="0 0 259.67514 546.09222"
   version="1.1"
   id="svg1"
   xml:space="preserve"
   xmlns="http://www.w3.org/2000/svg"
   xmlns:svg="http://www.w3.org/2000/svg"><defs
     id="defs1" /><g
     id="layer1"
     transform="translate(441.341,-265.96413)"><path
       id="path50"
       style="display:inline;fill:#b3b3b3;fill-opacity:1;stroke-width:0.264583"
       d="m -335.28548,327.92314 1.11621,20.46645 -37.58478,11.16366 -12.27987,3.34966 -10.41952,15.25695 -4.46536,32.74684 -3.72122,16.00109 -0.74414,27.90941 -14.51281,35.72392 -6.32623,47.63172 -13.3966,14.14073 -3.72122,18.6061 2.23294,1.86087 8.93072,-9.67538 3.34915,22.69991 8.18658,10.79107 15.62954,-0.74414 9.30279,-15.25695 -8.18658,-11.53573 1.11621,-22.32732 -3.34915,-3.72122 1.11673,-6.6983 11.9078,-20.46696 8.55865,-28.65355 0.74466,-11.16366 14.14073,-30.5139 7.81451,26.04854 1.86036,49.12 -19.72231,54.7026 -5.21002,30.88597 -0.37207,36.46806 -5.95364,36.46857 2.97656,91.17015 -23.07146,30.14183 4.83743,7.81503 36.09599,3.72122 4.0938,-7.81503 -2.97708,-16.74523 4.09329,-2.60501 v -11.9078 l -1.86086,-13.3966 21.2111,-75.54112 0.74415,-29.02562 31.25855,-87.82152 -0.016,-4.72322 h 0.709 l -0.016,4.72322 31.25804,87.82152 0.74466,29.02562 21.21111,75.54112 -1.86087,13.3966 v 11.9078 l 4.09329,2.60501 -2.97708,16.74523 4.09329,7.81503 36.09599,-3.72122 4.83795,-7.81503 -23.07198,-30.14183 2.97708,-91.17015 -5.95364,-36.46857 -0.37259,-36.46806 -5.2095,-30.88597 -19.72231,-54.7026 1.86035,-49.12 7.81451,-26.04854 14.14074,30.5139 0.74414,11.16366 8.55917,28.65355 11.9078,20.46696 1.11621,6.6983 -3.34915,3.72122 1.11673,22.32732 -8.1871,11.53573 9.30331,15.25695 15.62902,0.74414 8.1871,-10.79107 3.34915,-22.69991 8.93072,9.67538 2.23294,-1.86087 -3.72122,-18.6061 -13.3966,-14.14073 -6.32623,-47.63172 -14.51281,-35.72392 -0.74414,-27.90941 -3.72122,-16.00109 -4.46536,-32.74684 -10.41952,-15.25695 -12.28039,-3.34966 -37.58427,-11.16366 1.11621,-20.46645 -22.25962,21.52995 v -6.45904 c 0,-2.57696 -2.07495,-4.65139 -4.65191,-4.65139 -2.57696,0 -4.6514,2.07443 -4.6514,4.65139 v 0.40566 z" /><path
       style="fill:#cccccc;fill-opacity:1;stroke-width:0.264583"
       d="m -340.28932,298.53962 -4.46942,1.7489 0.97163,11.65931 5.63533,11.07633 h 2.91481 l -1.55456,-25.65048 z"
       id="path52" /><path
       style="fill:#cccccc;fill-opacity:1;stroke-width:0.264583"
       d="m -281.35608,299.51123 4.46942,1.7489 -0.97163,11.65931 -5.63533,11.07633 h -2.91481 l 1.55456,-25.65048 z"
       id="path53" /><path
       id="path54"
       style="display:inline;fill:#cccccc;fill-opacity:1;stroke-width:0.275847"
       d="m -311.78407,265.96413 5.2e-4,0.0811 -8.6496,0.66352 -12.9434,6.6983 -5.25808,10.41901 0.40411,32.00269 3.64061,13.76867 11.3254,17.11782 11.88455,3.64474 5.2e-4,0.0765 0.12505,-0.0382 0.12454,0.0382 5.2e-4,-0.0765 11.88455,-3.64474 11.3254,-17.11782 3.64009,-13.76867 0.40463,-32.00269 -5.25808,-10.41901 -12.9434,-6.6983 -8.65011,-0.66352 5.1e-4,-0.0811 -0.52916,0.0408 z" /><path
       style="fill:#666666;fill-opacity:1;stroke-width:0.264583"
       d="m -323.74217,327.44948 9.18564,1.5975 -8.78626,34.34628 9.18565,15.9751 -0.39939,65.0983 -27.55694,-32.3495 -3.99375,-27.9563 -9.58503,-14.7769 -13.97815,-7.1888 33.94697,-10.3838 6.78939,-5.9906 z"
       id="path56" /><path
       style="fill:#666666;fill-opacity:1;stroke-width:0.264583"
       d="m -375.26166,362.19516 21.5663,13.1794 v 10.3838 l -7.18876,7.5882 -17.97193,3.195 -21.56629,14.7769 4.7925,-17.5726 0.79875,-16.7738 z"
       id="path57" /><path
       style="fill:#666666;fill-opacity:1;stroke-width:0.264583"
       d="m -350.89972,385.75836 -7.18878,7.5882 -11.5819,3.9937 25.56007,16.3744 -5.19189,-16.3744 z"
       id="path58" /><path
       style="fill:#666666;fill-opacity:1;stroke-width:0.264583"
       d="m -375.26166,398.93776 5.99065,0.7988 24.36193,17.1731 v 3.195 l -16.37443,1.1982 -13.57878,-4.3932 z"
       id="path59" /><path
       style="fill:#666666;fill-opacity:1;stroke-width:0.264583"
       d="m -378.85605,399.33716 -23.16379,16.3744 -0.79875,39.1388 -6.39003,15.9751 1.19814,3.195 3.99375,-1.9969 5.99064,-17.1732 3.195,0.7988 -3.59436,23.1638 20.76754,-11.5819 10.78315,-23.9626 -7.98753,-17.5725 z"
       id="path60" /><path
       style="fill:#666666;fill-opacity:1;stroke-width:0.264583"
       d="m -400.02298,479.61176 7.18878,6.7894 0.39937,16.3744 -11.98126,20.7675 -1.19814,12.78 -13.97815,-0.3994 5.99064,-17.5725 z"
       id="path61" /><path
       style="fill:#666666;fill-opacity:1;stroke-width:0.264583"
       d="m -410.80612,472.82236 4.79253,5.1919 -1.19814,11.1825 -10.78315,32.3494 1.19811,-26.7582 z"
       id="path62" /><path
       style="fill:#666666;fill-opacity:1;stroke-width:0.264583"
       d="m -374.06354,418.90656 17.57254,4.7925 15.57567,-2.7956 24.36194,26.3588 -10.78315,29.1544 -9.98439,17.1732 -3.99378,-0.3994 -18.77066,-27.5569 -5.19189,-23.1638 z"
       id="path63" /><path
       style="fill:#666666;fill-opacity:1;stroke-width:0.264583"
       d="m -359.28662,472.42296 16.77379,22.7644 -15.17629,6.7894 z"
       id="path64" /><path
       style="fill:#666666;fill-opacity:1;stroke-width:0.264583"
       d="m -357.68912,511.96116 10.38376,-7.9875 16.77379,-0.3994 -10.38376,-4.7925 -10.78314,0.7988 z"
       id="path65" /><path
       style="fill:#666666;fill-opacity:1;stroke-width:0.264583"
       d="m -358.88725,515.15616 13.97817,-10.3838 h 15.17629 l 15.97501,11.9813 -0.39936,38.3401 -9.9844,9.1857 h -20.36818 l -13.97815,-9.9845 z"
       id="path66" /><path
       style="fill:#666666;fill-opacity:1;stroke-width:0.264583"
       d="m -349.30222,565.07816 24.76129,3.5944 2.79565,27.5569 -19.17005,68.2933 -6.39003,-15.5757 -5.59125,-7.5881 v -13.9782 l -6.7894,13.1794 -12.38064,4.3932 -11.5819,13.9782 12.38065,-54.3152 z"
       id="path67" /><path
       style="fill:#666666;fill-opacity:1;stroke-width:0.264583"
       d="m -369.27101,720.43536 8.38689,20.7676 18.77065,-57.5102 -1.19811,-18.7706 -9.58503,-7.5882 -11.18251,9.5851 -7.18878,-11.1826 h -7.98751 l -5.59128,24.7613 -1.19811,55.5133 3.195,3.9938 5.59125,-1.9969 z"
       id="path68" /><path
       style="fill:#666666;fill-opacity:1;stroke-width:0.264583"
       d="m -299.54063,327.44948 -9.18564,1.5975 8.78626,34.34628 -9.18565,15.9751 0.39939,65.0983 27.55694,-32.3495 3.99375,-27.9563 9.58503,-14.7769 13.97815,-7.1888 -33.94697,-10.3838 -6.78939,-5.9906 z"
       id="path69" /><path
       style="fill:#666666;fill-opacity:1;stroke-width:0.264583"
       d="m -248.02114,362.19516 -21.5663,13.1794 v 10.3838 l 7.18876,7.5882 17.97193,3.195 21.56629,14.7769 -4.7925,-17.5726 -0.79875,-16.7738 z"
       id="path70" /><path
       style="fill:#666666;fill-opacity:1;stroke-width:0.264583"
       d="m -272.38308,385.75836 7.18878,7.5882 11.5819,3.9937 -25.56007,16.3744 5.19189,-16.3744 z"
       id="path71" /><path
       style="fill:#666666;fill-opacity:1;stroke-width:0.264583"
       d="m -248.02114,398.93776 -5.99065,0.7988 -24.36193,17.1731 v 3.195 l 16.37443,1.1982 13.57878,-4.3932 z"
       id="path72" /><path
       style="fill:#666666;fill-opacity:1;stroke-width:0.264583"
       d="m -244.42675,399.33716 23.16379,16.3744 0.79875,39.1388 6.39003,15.9751 -1.19814,3.195 -3.99375,-1.9969 -5.99064,-17.1732 -3.195,0.7988 3.59436,23.1638 -20.76754,-11.5819 -10.78315,-23.9626 7.98753,-17.5725 z"
       id="path73" /><path
       style="fill:#666666;fill-opacity:1;stroke-width:0.264583"
       d="m -223.25982,479.61176 -7.18878,6.7894 -0.39937,16.3744 11.98126,20.7675 1.19814,12.78 13.97815,-0.3994 -5.99064,-17.5725 z"
       id="path74" /><path
       style="fill:#666666;fill-opacity:1;stroke-width:0.264583"
       d="m -212.47668,472.82236 -4.79253,5.1919 1.19814,11.1825 10.78315,32.3494 -1.19811,-26.7582 z"
       id="path75" /><path
       style="fill:#666666;fill-opacity:1;stroke-width:0.264583"
       d="m -249.21926,418.90656 -17.57254,4.7925 -15.57567,-2.7956 -24.36194,26.3588 10.78315,29.1544 9.98439,17.1732 3.99378,-0.3994 18.77066,-27.5569 5.19189,-23.1638 z"
       id="path76" /><path
       style="fill:#666666;fill-opacity:1;stroke-width:0.264583"
       d="m -263.99618,472.42296 -16.77379,22.7644 15.17629,6.7894 z"
       id="path77" /><path
       style="fill:#666666;fill-opacity:1;stroke-width:0.264583"
       d="m -265.59368,511.96116 -10.38376,-7.9875 -16.77379,-0.3994 10.38376,-4.7925 10.78314,0.7988 z"
       id="path78" /><path
       style="fill:#666666;fill-opacity:1;stroke-width:0.264583"
       d="m -264.39555,515.15616 -13.97817,-10.3838 h -15.17629 l -15.97501,11.9813 0.39936,38.3401 9.9844,9.1857 h 20.36818 l 13.97815,-9.9845 z"
       id="path79" /><path
       style="fill:#666666;fill-opacity:1;stroke-width:0.264583"
       d="m -273.98058,565.07816 -24.76129,3.5944 -2.79565,27.5569 19.17005,68.2933 6.39003,-15.5757 5.59125,-7.5881 v -13.9782 l 6.7894,13.1794 12.38064,4.3932 11.5819,13.9782 -12.38065,-54.3152 z"
       id="path80" /><path
       style="fill:#666666;fill-opacity:1;stroke-width:0.264583"
       d="m -254.01179,720.43536 -8.38689,20.7676 -18.77065,-57.5102 1.19811,-18.7706 9.58503,-7.5882 11.18251,9.5851 7.18878,-11.1826 h 7.98751 l 5.59128,24.7613 1.19811,55.5133 -3.195,3.9938 -5.59125,-1.9969 z"
       id="path81" /></g></svg>
