<?xml version="1.0" encoding="UTF-8" standalone="no"?>
<!-- Created with Inkscape (http://www.inkscape.org/) -->

<svg
   width="259.6749mm"
   height="546.0918mm"
   viewBox="0 0 259.6749 546.0918"
   version="1.1"
   id="svg1"
   xml:space="preserve"
   xmlns="http://www.w3.org/2000/svg"
   xmlns:svg="http://www.w3.org/2000/svg"><defs
     id="defs1" /><g
     id="layer1"
     transform="translate(441.34094,-265.96438)"><path
       style="fill:#b3b3b3;fill-opacity:1;stroke-width:0.264583"
       d="m -335.28568,327.92303 1.11639,20.46677 -37.58452,11.1637 -12.28008,3.3492 -10.41947,15.257 -4.46548,32.747 -3.72126,16.0013 -0.74425,27.9092 -14.51282,35.724 -6.32611,47.6318 -13.39646,14.1407 -3.72123,18.6062 2.23274,1.8606 8.93097,-9.6752 3.34912,22.6996 8.18673,10.7915 15.6292,-0.7442 9.30309,-15.2571 -8.18673,-11.5358 1.11638,-22.3274 -3.34912,-3.7213 1.11638,-6.6982 11.90797,-20.4668 8.55885,-28.6536 0.74424,-11.1637 14.14071,-30.5141 7.8146,26.0486 1.86061,49.1204 -19.72257,54.7022 -5.20973,30.8863 -0.37211,36.4681 -5.954,36.4682 2.97699,91.1703 -23.07167,30.142 4.83762,7.8146 36.09602,3.7213 4.09334,-7.8146 -2.97699,-16.7456 4.09337,-2.6049 v -11.9079 l -1.86063,-13.3965 21.21107,-75.5411 0.74424,-29.0257 31.25841,-87.8212 -0.74425,-217.3204 z"
       id="path50" /><path
       style="fill:#b3b3b3;fill-opacity:1;stroke-width:0.264583"
       d="m -287.72134,327.92303 -1.11639,20.46677 37.58452,11.1637 12.28008,3.3492 10.41947,15.257 4.46548,32.747 3.72126,16.0013 0.74425,27.9092 14.51282,35.724 6.32611,47.6318 13.39646,14.1407 3.72123,18.6062 -2.23274,1.8606 -8.93097,-9.6752 -3.34912,22.6996 -8.18673,10.7915 -15.6292,-0.7442 -9.30309,-15.2571 8.18673,-11.5358 -1.11638,-22.3274 3.34912,-3.7213 -1.11638,-6.6982 -11.90797,-20.4668 -8.55885,-28.6536 -0.74424,-11.1637 -14.14071,-30.5141 -7.8146,26.0486 -1.86061,49.1204 19.72257,54.7022 5.20973,30.8863 0.37211,36.4681 5.954,36.4682 -2.97699,91.1703 23.07167,30.142 -4.83762,7.8146 -36.09602,3.7213 -4.09334,-7.8146 2.97699,-16.7456 -4.09337,-2.6049 v -11.9079 l 1.86063,-13.3965 -21.21107,-75.5411 -0.74424,-29.0257 -31.25841,-87.8212 0.74425,-217.3204 z"
       id="path51" /><rect
       style="fill:#b3b3b3;fill-opacity:1;stroke-width:0.264583"
       id="rect51"
       width="9.3030968"
       height="133.9646"
       x="-319.28436"
       y="338.34253"
       ry="4.6515484" /><rect
       style="fill:#b3b3b3;fill-opacity:1;stroke-width:0.264583"
       id="rect52"
       width="25.715464"
       height="104.00477"
       x="-326.55414"
       y="458.47046"
       ry="4.6515484" /><path
       style="fill:#cccccc;fill-opacity:1;stroke-width:0.264583"
       d="m -340.28932,298.53962 -4.46942,1.7489 0.97163,11.65931 5.63533,11.07633 h 2.91481 l -1.55456,-25.65048 z"
       id="path52" /><path
       style="fill:#cccccc;fill-opacity:1;stroke-width:0.264583"
       d="m -281.35608,299.51123 4.46942,1.7489 -0.97163,11.65931 -5.63533,11.07633 h -2.91481 l 1.55456,-25.65048 z"
       id="path53" /><path
       style="fill:#cccccc;fill-opacity:1;stroke-width:0.275847"
       d="m -310.72549,265.96438 -9.70756,0.7442 -12.94344,6.6983 -5.25828,10.4194 0.4045,32.0027 3.64032,13.7686 11.32552,17.11772 12.13448,3.7212 z"
       id="path54" /><path
       style="fill:#cccccc;fill-opacity:1;stroke-width:0.275847"
       d="m -311.78382,265.96438 9.70756,0.7442 12.94344,6.6983 5.25828,10.4194 -0.4045,32.0027 -3.64032,13.7686 -11.32552,17.11772 -12.13448,3.7212 z"
       id="path55" /><path
       style="fill:#666666;fill-opacity:1;stroke-width:0.264583"
       d="m -323.74217,327.44948 9.18564,1.5975 -8.78626,34.34628 9.18565,15.9751 -0.39939,65.0983 -27.55694,-32.3495 -3.99375,-27.9563 -9.58503,-14.7769 -13.97815,-7.1888 33.94697,-10.3838 6.78939,-5.9906 z"
       id="path56" /><path
       style="fill:#666666;fill-opacity:1;stroke-width:0.264583"
       d="m -375.26166,362.19516 21.5663,13.1794 v 10.3838 l -7.18876,7.5882 -17.97193,3.195 -21.56629,14.7769 4.7925,-17.5726 0.79875,-16.7738 z"
       id="path57" /><path
       style="fill:#666666;fill-opacity:1;stroke-width:0.264583"
       d="m -350.89972,385.75836 -7.18878,7.5882 -11.5819,3.9937 25.56007,16.3744 -5.19189,-16.3744 z"
       id="path58" /><path
       style="fill:#666666;fill-opacity:1;stroke-width:0.264583"
       d="m -375.26166,398.93776 5.99065,0.7988 24.36193,17.1731 v 3.195 l -16.37443,1.1982 -13.57878,-4.3932 z"
       id="path59" /><path
       style="fill:#666666;fill-opacity:1;stroke-width:0.264583"
       d="m -378.85605,399.33716 -23.16379,16.3744 -0.79875,39.1388 -6.39003,15.9751 1.19814,3.195 3.99375,-1.9969 5.99064,-17.1732 3.195,0.7988 -3.59436,23.1638 20.76754,-11.5819 10.78315,-23.9626 -7.98753,-17.5725 z"
       id="path60" /><path
       style="fill:#666666;fill-opacity:1;stroke-width:0.264583"
       d="m -400.02298,479.61176 7.18878,6.7894 0.39937,16.3744 -11.98126,20.7675 -1.19814,12.78 -13.97815,-0.3994 5.99064,-17.5725 z"
       id="path61" /><path
       style="fill:#666666;fill-opacity:1;stroke-width:0.264583"
       d="m -410.80612,472.82236 4.79253,5.1919 -1.19814,11.1825 -10.78315,32.3494 1.19811,-26.7582 z"
       id="path62" /><path
       style="fill:#666666;fill-opacity:1;stroke-width:0.264583"
       d="m -374.06354,418.90656 17.57254,4.7925 15.57567,-2.7956 24.36194,26.3588 -10.78315,29.1544 -9.98439,17.1732 -3.99378,-0.3994 -18.77066,-27.5569 -5.19189,-23.1638 z"
       id="path63" /><path
       style="fill:#666666;fill-opacity:1;stroke-width:0.264583"
       d="m -359.28662,472.42296 16.77379,22.7644 -15.17629,6.7894 z"
       id="path64" /><path
       style="fill:#666666;fill-opacity:1;stroke-width:0.264583"
       d="m -357.68912,511.96116 10.38376,-7.9875 16.77379,-0.3994 -10.38376,-4.7925 -10.78314,0.7988 z"
       id="path65" /><path
       style="fill:#666666;fill-opacity:1;stroke-width:0.264583"
       d="m -358.88725,515.15616 13.97817,-10.3838 h 15.17629 l 15.97501,11.9813 -0.39936,38.3401 -9.9844,9.1857 h -20.36818 l -13.97815,-9.9845 z"
       id="path66" /><path
       style="fill:#666666;fill-opacity:1;stroke-width:0.264583"
       d="m -349.30222,565.07816 24.76129,3.5944 2.79565,27.5569 -19.17005,68.2933 -6.39003,-15.5757 -5.59125,-7.5881 v -13.9782 l -6.7894,13.1794 -12.38064,4.3932 -11.5819,13.9782 12.38065,-54.3152 z"
       id="path67" /><path
       style="fill:#666666;fill-opacity:1;stroke-width:0.264583"
       d="m -369.27101,720.43536 8.38689,20.7676 18.77065,-57.5102 -1.19811,-18.7706 -9.58503,-7.5882 -11.18251,9.5851 -7.18878,-11.1826 h -7.98751 l -5.59128,24.7613 -1.19811,55.5133 3.195,3.9938 5.59125,-1.9969 z"
       id="path68" /><path
       style="fill:#666666;fill-opacity:1;stroke-width:0.264583"
       d="m -299.54063,327.44948 -9.18564,1.5975 8.78626,34.34628 -9.18565,15.9751 0.39939,65.0983 27.55694,-32.3495 3.99375,-27.9563 9.58503,-14.7769 13.97815,-7.1888 -33.94697,-10.3838 -6.78939,-5.9906 z"
       id="path69" /><path
       style="fill:#666666;fill-opacity:1;stroke-width:0.264583"
       d="m -248.02114,362.19516 -21.5663,13.1794 v 10.3838 l 7.18876,7.5882 17.97193,3.195 21.56629,14.7769 -4.7925,-17.5726 -0.79875,-16.7738 z"
       id="path70" /><path
       style="fill:#666666;fill-opacity:1;stroke-width:0.264583"
       d="m -272.38308,385.75836 7.18878,7.5882 11.5819,3.9937 -25.56007,16.3744 5.19189,-16.3744 z"
       id="path71" /><path
       style="fill:#666666;fill-opacity:1;stroke-width:0.264583"
       d="m -248.02114,398.93776 -5.99065,0.7988 -24.36193,17.1731 v 3.195 l 16.37443,1.1982 13.57878,-4.3932 z"
       id="path72" /><path
       style="fill:#666666;fill-opacity:1;stroke-width:0.264583"
       d="m -244.42675,399.33716 23.16379,16.3744 0.79875,39.1388 6.39003,15.9751 -1.19814,3.195 -3.99375,-1.9969 -5.99064,-17.1732 -3.195,0.7988 3.59436,23.1638 -20.76754,-11.5819 -10.78315,-23.9626 7.98753,-17.5725 z"
       id="path73" /><path
       style="fill:#666666;fill-opacity:1;stroke-width:0.264583"
       d="m -223.25982,479.61176 -7.18878,6.7894 -0.39937,16.3744 11.98126,20.7675 1.19814,12.78 13.97815,-0.3994 -5.99064,-17.5725 z"
       id="path74" /><path
       style="fill:#666666;fill-opacity:1;stroke-width:0.264583"
       d="m -212.47668,472.82236 -4.79253,5.1919 1.19814,11.1825 10.78315,32.3494 -1.19811,-26.7582 z"
       id="path75" /><path
       style="fill:#666666;fill-opacity:1;stroke-width:0.264583"
       d="m -249.21926,418.90656 -17.57254,4.7925 -15.57567,-2.7956 -24.36194,26.3588 10.78315,29.1544 9.98439,17.1732 3.99378,-0.3994 18.77066,-27.5569 5.19189,-23.1638 z"
       id="path76" /><path
       style="fill:#666666;fill-opacity:1;stroke-width:0.264583"
       d="m -263.99618,472.42296 -16.77379,22.7644 15.17629,6.7894 z"
       id="path77" /><path
       style="fill:#666666;fill-opacity:1;stroke-width:0.264583"
       d="m -265.59368,511.96116 -10.38376,-7.9875 -16.77379,-0.3994 10.38376,-4.7925 10.78314,0.7988 z"
       id="path78" /><path
       style="fill:#666666;fill-opacity:1;stroke-width:0.264583"
       d="m -264.39555,515.15616 -13.97817,-10.3838 h -15.17629 l -15.97501,11.9813 0.39936,38.3401 9.9844,9.1857 h 20.36818 l 13.97815,-9.9845 z"
       id="path79" /><path
       style="fill:#666666;fill-opacity:1;stroke-width:0.264583"
       d="m -273.98058,565.07816 -24.76129,3.5944 -2.79565,27.5569 19.17005,68.2933 6.39003,-15.5757 5.59125,-7.5881 v -13.9782 l 6.7894,13.1794 12.38064,4.3932 11.5819,13.9782 -12.38065,-54.3152 z"
       id="path80" /><path
       style="fill:#666666;fill-opacity:1;stroke-width:0.264583"
       d="m -254.01179,720.43536 -8.38689,20.7676 -18.77065,-57.5102 1.19811,-18.7706 9.58503,-7.5882 11.18251,9.5851 7.18878,-11.1826 h 7.98751 l 5.59128,24.7613 1.19811,55.5133 -3.195,3.9938 -5.59125,-1.9969 z"
       id="path81" /></g></svg>
