<?xml version="1.0" encoding="UTF-8" standalone="no"?>
<!-- Created with Inkscape (http://www.inkscape.org/) -->

<svg
   width="259.67496mm"
   height="546.09186mm"
   viewBox="0 0 259.67496 546.09186"
   version="1.1"
   id="svg1"
   xml:space="preserve"
   xmlns="http://www.w3.org/2000/svg"
   xmlns:svg="http://www.w3.org/2000/svg"><defs
     id="defs1" /><g
     id="layer1"
     transform="translate(884.05378,-268.99084)"><path
       style="fill:#b3b3b3;fill-opacity:1;stroke-width:0.264583"
       d="m -777.99847,330.94949 1.11639,20.46677 -37.58452,11.1637 -12.28008,3.3492 -10.41947,15.257 -4.46548,32.747 -3.72126,16.0013 -0.74425,27.9092 -14.51282,35.724 -6.32611,47.6318 -13.39646,14.1407 -3.72123,18.6062 2.23274,1.8606 8.93097,-9.6752 3.34912,22.6996 8.18673,10.7915 15.6292,-0.7442 9.30309,-15.2571 -8.18673,-11.5358 1.11638,-22.3274 -3.34912,-3.7213 1.11638,-6.6982 11.90797,-20.4668 8.55885,-28.6536 0.74424,-11.1637 14.14071,-30.5141 7.8146,26.0486 1.86061,49.1204 -19.72257,54.7022 -5.20973,30.8863 -0.37211,36.4681 -5.954,36.4682 2.97699,91.1703 -23.07167,30.142 4.83762,7.8146 36.09602,3.7213 4.09334,-7.8146 -2.97699,-16.7456 4.09337,-2.6049 v -11.9079 l -1.86063,-13.3965 21.21107,-75.5411 0.74424,-29.0257 31.25841,-87.8212 -0.74425,-217.3204 z"
       id="path46" /><path
       style="fill:#b3b3b3;fill-opacity:1;stroke-width:0.264583"
       d="m -730.43413,330.94949 -1.11639,20.46677 37.58452,11.1637 12.28008,3.3492 10.41947,15.257 4.46548,32.747 3.72126,16.0013 0.74425,27.9092 14.51282,35.724 6.32611,47.6318 13.39646,14.1407 3.72123,18.6062 -2.23274,1.8606 -8.93097,-9.6752 -3.34912,22.6996 -8.18673,10.7915 -15.6292,-0.7442 -9.30309,-15.2571 8.18673,-11.5358 -1.11638,-22.3274 3.34912,-3.7213 -1.11638,-6.6982 -11.90797,-20.4668 -8.55885,-28.6536 -0.74424,-11.1637 -14.14071,-30.5141 -7.8146,26.0486 -1.86061,49.1204 19.72257,54.7022 5.20973,30.8863 0.37211,36.4681 5.954,36.4682 -2.97699,91.1703 23.07167,30.142 -4.83762,7.8146 -36.09602,3.7213 -4.09334,-7.8146 2.97699,-16.7456 -4.09337,-2.6049 v -11.9079 l 1.86063,-13.3965 -21.21107,-75.5411 -0.74424,-29.0257 -31.25841,-87.8212 0.74425,-217.3204 z"
       id="path47" /><rect
       style="fill:#b3b3b3;fill-opacity:1;stroke-width:0.264583"
       id="rect47"
       width="9.3030968"
       height="133.9646"
       x="-761.99713"
       y="341.36899"
       ry="4.6515484" /><rect
       style="fill:#b3b3b3;fill-opacity:1;stroke-width:0.264583"
       id="rect48"
       width="25.715464"
       height="104.00477"
       x="-769.26691"
       y="461.49692"
       ry="4.6515484" /><path
       style="fill:#cccccc;fill-opacity:1;stroke-width:0.264583"
       d="m -783.00211,301.56608 -4.46942,1.7489 0.97163,11.65931 5.63533,11.07633 h 2.91481 l -1.55456,-25.65048 z"
       id="path48" /><path
       style="fill:#cccccc;fill-opacity:1;stroke-width:0.264583"
       d="m -724.06887,302.53769 4.46942,1.7489 -0.97163,11.65931 -5.63533,11.07633 h -2.91481 l 1.55456,-25.65048 z"
       id="path49" /><path
       style="fill:#cccccc;fill-opacity:1;stroke-width:0.275847"
       d="m -753.43828,268.99084 -9.70756,0.7442 -12.94344,6.6983 -5.25828,10.4194 0.4045,32.0027 3.64032,13.7686 11.32552,17.11772 12.13448,3.7212 z"
       id="path44" /><path
       style="fill:#cccccc;fill-opacity:1;stroke-width:0.275847"
       d="m -754.49661,268.99084 9.70756,0.7442 12.94344,6.6983 5.25828,10.4194 -0.4045,32.0027 -3.64032,13.7686 -11.32552,17.11772 -12.13448,3.7212 z"
       id="path45" /><path
       style="fill:#666666;fill-opacity:1;stroke-width:0.264583"
       d="m -800.33672,362.23686 37.12522,9.4972 7.77039,56.1195 -22.4478,6.0436 -28.49145,-15.5407 -6.04364,-35.3985 z"
       id="path7" /><path
       style="fill:#666666;fill-opacity:1;stroke-width:0.264583"
       d="m -810.69724,358.78336 41.44211,6.0436 -6.90702,-33.6717 -3.4535,18.1309 z"
       id="path9" /><path
       style="fill:#666666;fill-opacity:1;stroke-width:0.264583"
       d="m -802.97085,362.75896 -19.66066,1.6384 -13.65324,13.6532 -6.55357,38.5022 26.21423,-20.4799 2.45758,-18.0223 z"
       id="path10" /><path
       style="fill:#666666;fill-opacity:1;stroke-width:0.264583"
       d="m -816.62409,398.25736 -26.21423,18.8415 -0.8192,43.1442 6.82662,11.1957 20.75294,-25.395 6.55357,-21.2991 z"
       id="path11" /><path
       style="fill:#666666;fill-opacity:1;stroke-width:0.264583"
       d="m -866.00836,536.99996 30.12356,-47.7569 0.24492,-12.7351 -9.30648,-17.1435 -15.18422,32.8175 z"
       id="path12" /><path
       style="fill:#666666;fill-opacity:1;stroke-width:0.264583"
       d="m -828.04776,481.65096 -24.24581,36.2463 -11.51062,23.7559 10.531,0.4899 5.38795,3.6736 0.73472,-6.6125 16.65369,-32.0828 z"
       id="path13" /><path
       style="fill:#666666;fill-opacity:1;stroke-width:0.264583"
       d="m -805.76122,419.68956 12.00044,11.0208 -8.08194,33.5522 -6.85739,-17.8782 z"
       id="path14" /><path
       style="fill:#666666;fill-opacity:1;stroke-width:0.264583"
       d="m -776.12749,451.52746 -0.2449,-7.8371 12.49026,-8.3268 h 7.10229 l 0.24493,17.1435 z"
       id="path15" /><path
       style="fill:#666666;fill-opacity:1;stroke-width:0.264583"
       d="m -775.88257,455.44596 18.61294,0.2449 0.24489,16.8986 -18.85783,-0.7347 z"
       id="path16" /><path
       style="fill:#666666;fill-opacity:1;stroke-width:0.264583"
       d="m -775.88257,475.77326 18.61294,0.2449 0.24489,16.8986 -18.85783,-0.7347 z"
       id="path17" /><path
       style="fill:#666666;fill-opacity:1;stroke-width:0.264583"
       d="m -775.63767,495.61066 h 17.63331 v 46.5324 l -12.00044,-8.5718 -6.36759,-19.8374 z"
       id="path18" /><path
       style="fill:#666666;fill-opacity:1;stroke-width:0.264583"
       d="m -792.29134,431.44506 9.30646,3.9185 2.69398,9.0616 -2.93888,46.2874 2.69398,23.756 -1.71436,2.2041 -5.38795,-0.2449 -10.04118,-6.3676 -3.42871,-45.7976 z"
       id="path19" /><path
       style="fill:#666666;fill-opacity:1;stroke-width:0.264583"
       d="m -771.47424,552.42916 14.93933,9.5513 -0.48983,12.4903 -14.69442,43.8383 z"
       id="path20" /><path
       style="fill:#666666;fill-opacity:1;stroke-width:0.264583"
       d="m -790.3321,521.81576 6.85742,5.6328 6.12267,21.0621 4.65323,38.9402 -1.22455,26.9397 -7.59211,31.1032 3.9185,-28.4092 -2.20413,-57.0633 z"
       id="path21" /><path
       style="fill:#666666;fill-opacity:1;stroke-width:0.264583"
       d="m -813.59826,559.04166 9.79628,-1.7144 10.531,-14.9393 2.20416,-16.1639 7.83704,31.8379 1.95926,70.7781 -7.59214,16.1639 h -7.83701 l -7.83703,-10.0412 -7.34719,3.9185 -5.63288,-0.2449 -7.10231,-27.6745 z"
       id="path22" /><path
       style="fill:#666666;fill-opacity:1;stroke-width:0.264583"
       d="m -787.63811,652.10626 -10.531,8.8167 -8.57176,49.2263 6.1227,12.7351 12.49024,-34.7767 z"
       id="path23" /><path
       style="fill:#666666;fill-opacity:1;stroke-width:0.264583"
       d="m -809.92465,713.33306 9.55138,10.7759 -8.32684,38.6953 z"
       id="path24" /><path
       style="fill:#666666;fill-opacity:1;stroke-width:0.264583"
       d="m -823.14964,646.96326 4.89815,35.0217 -9.06155,77.1457 -3.42871,-77.3906 z"
       id="path25" /><path
       style="fill:#666666;fill-opacity:1;stroke-width:0.264583"
       d="m -708.39954,362.23686 -37.12522,9.4972 -7.77039,56.1195 22.4478,6.0436 28.49145,-15.5407 6.04364,-35.3985 z"
       id="path26" /><path
       style="fill:#666666;fill-opacity:1;stroke-width:0.264583"
       d="m -698.03902,358.78336 -41.44211,6.0436 6.90702,-33.6717 3.4535,18.1309 z"
       id="path27" /><path
       style="fill:#666666;fill-opacity:1;stroke-width:0.264583"
       d="m -705.76541,362.75896 19.66066,1.6384 13.65324,13.6532 6.55357,38.5022 -26.21423,-20.4799 -2.45758,-18.0223 z"
       id="path28" /><path
       style="fill:#666666;fill-opacity:1;stroke-width:0.264583"
       d="m -692.11217,398.25736 26.21423,18.8415 0.8192,43.1442 -6.82662,11.1957 -20.75294,-25.395 -6.55357,-21.2991 z"
       id="path29" /><path
       style="fill:#666666;fill-opacity:1;stroke-width:0.264583"
       d="m -642.7279,536.99996 -30.12356,-47.7569 -0.24492,-12.7351 9.30648,-17.1435 15.18422,32.8175 z"
       id="path30" /><path
       style="fill:#666666;fill-opacity:1;stroke-width:0.264583"
       d="m -680.6885,481.65096 24.24581,36.2463 11.51062,23.7559 -10.531,0.4899 -5.38795,3.6736 -0.73472,-6.6125 -16.65369,-32.0828 z"
       id="path31" /><path
       style="fill:#666666;fill-opacity:1;stroke-width:0.264583"
       d="m -702.97504,419.68956 -12.00044,11.0208 8.08194,33.5522 6.85739,-17.8782 z"
       id="path32" /><path
       style="fill:#666666;fill-opacity:1;stroke-width:0.264583"
       d="m -732.60877,451.52746 0.2449,-7.8371 -12.49026,-8.3268 h -7.10229 l -0.24493,17.1435 z"
       id="path33" /><path
       style="fill:#666666;fill-opacity:1;stroke-width:0.264583"
       d="m -732.85369,455.44596 -18.61294,0.2449 -0.24489,16.8986 18.85783,-0.7347 z"
       id="path34" /><path
       style="fill:#666666;fill-opacity:1;stroke-width:0.264583"
       d="m -732.85369,475.77326 -18.61294,0.2449 -0.24489,16.8986 18.85783,-0.7347 z"
       id="path35" /><path
       style="fill:#666666;fill-opacity:1;stroke-width:0.264583"
       d="m -733.09859,495.61066 h -17.63331 v 46.5324 l 12.00044,-8.5718 6.36759,-19.8374 z"
       id="path36" /><path
       style="fill:#666666;fill-opacity:1;stroke-width:0.264583"
       d="m -716.44492,431.44506 -9.30646,3.9185 -2.69398,9.0616 2.93888,46.2874 -2.69398,23.756 1.71436,2.2041 5.38795,-0.2449 10.04118,-6.3676 3.42871,-45.7976 z"
       id="path37" /><path
       style="fill:#666666;fill-opacity:1;stroke-width:0.264583"
       d="m -737.26202,552.42916 -14.93933,9.5513 0.48983,12.4903 14.69442,43.8383 z"
       id="path38" /><path
       style="fill:#666666;fill-opacity:1;stroke-width:0.264583"
       d="m -718.40416,521.81576 -6.85742,5.6328 -6.12267,21.0621 -4.65323,38.9402 1.22455,26.9397 7.59211,31.1032 -3.9185,-28.4092 2.20413,-57.0633 z"
       id="path39" /><path
       style="fill:#666666;fill-opacity:1;stroke-width:0.264583"
       d="m -695.138,559.04166 -9.79628,-1.7144 -10.531,-14.9393 -2.20416,-16.1639 -7.83704,31.8379 -1.95926,70.7781 7.59214,16.1639 h 7.83701 l 7.83703,-10.0412 7.34719,3.9185 5.63288,-0.2449 7.10231,-27.6745 z"
       id="path40" /><path
       style="fill:#666666;fill-opacity:1;stroke-width:0.264583"
       d="m -721.09815,652.10626 10.531,8.8167 8.57176,49.2263 -6.1227,12.7351 -12.49024,-34.7767 z"
       id="path41" /><path
       style="fill:#666666;fill-opacity:1;stroke-width:0.264583"
       d="m -698.81161,713.33306 -9.55138,10.7759 8.32684,38.6953 z"
       id="path42" /><path
       style="fill:#666666;fill-opacity:1;stroke-width:0.264583"
       d="m -685.58662,646.96326 -4.89815,35.0217 9.06155,77.1457 3.42871,-77.3906 z"
       id="path43" /></g></svg>
